<?xml version="1.0" encoding="utf-8"?>
<!-- Generator: Adobe Illustrator 19.1.0, SVG Export Plug-In . SVG Version: 6.00 Build 0)  -->
<svg version="1.1" id="Layer_1" xmlns="http://www.w3.org/2000/svg" xmlns:xlink="http://www.w3.org/1999/xlink" x="0px" y="0px"
	 viewBox="0 0 339 60.8" style="enable-background:new 0 0 339 60.8;" xml:space="preserve">
<style type="text/css">
	.st0{fill:#BF5700;}
	.st1{fill:#333F48;}
</style>
<g>
	<g>
		<polygon class="st0" points="24.4,22 24.5,22 24.5,22 24.4,22 24.4,22 		"/>
		<path class="st0" d="M29.9,17.5c-1.1-0.2-2.2-0.3-3.2-0.3c-0.5,0-1,0.1-1.4,0.1l-0.2-6.4V9.9c0.4-0.2,1-0.3,1.7-0.3
			c0.9,0,1.9,0.1,3,0.3c0.9,0.1,1.9,0.3,2.9,0.3l0.3,7.6C31.9,17.8,30.9,17.7,29.9,17.5L29.9,17.5z M19,17.5c-1,0.2-2,0.3-3.1,0.4
			l0.3-7.6c1-0.1,2-0.2,2.9-0.3c1.1-0.2,2.1-0.3,3-0.3c0.7,0,1.2,0.1,1.7,0.3v1.1l-0.2,6.4c-0.4-0.1-0.9-0.1-1.4-0.1
			C21.2,17.2,20.2,17.3,19,17.5L19,17.5z M35.2,13v-1.4h-0.9V9.1h-0.6c-1.3,0-2.5-0.2-3.8-0.4c-1.1-0.2-2.2-0.3-3.2-0.3
			c-0.9,0-1.7,0.1-2.3,0.4c-0.6-0.3-1.4-0.4-2.3-0.4c-1,0-2,0.2-3.2,0.3c-1.2,0.2-2.5,0.4-3.8,0.4h-0.6v2.5h-0.9V13h0.9v2h-0.9v1.4
			h0.9v2.7h0.6c1.4,0,2.7-0.2,4-0.4c1.1-0.2,2.1-0.3,3-0.3c0.7,0,1.2,0.1,1.7,0.3v0H25v0c0.4-0.2,0.9-0.3,1.7-0.3
			c0.9,0,1.9,0.2,3,0.3c1.3,0.2,2.6,0.4,4,0.4h0.6v-2.7h0.9V15h-0.9v-2H35.2L35.2,13z"/>
		<path class="st0" d="M19.2,11c-0.1,0-0.1,0-0.2,0c-0.6,0.1-1.1,0.2-1.7,0.2l0,1c0.6-0.1,1.3-0.2,1.9-0.3c0,0,0,0,0,0V11L19.2,11z"
			/>
		<path class="st0" d="M19.9,10.9v1c1-0.1,2-0.2,2.8-0.2l0-1C21.9,10.7,20.9,10.8,19.9,10.9L19.9,10.9z"/>
		<path class="st0" d="M19.2,15.4c-0.1,0-0.1,0-0.2,0c-0.6,0.1-1.2,0.2-1.9,0.3l0,1c0.7-0.1,1.4-0.2,2.1-0.3c0,0,0,0,0,0V15.4
			L19.2,15.4z"/>
		<path class="st0" d="M19.9,15.3v1c1-0.1,1.8-0.2,2.6-0.2l0-1C21.7,15.1,20.8,15.2,19.9,15.3L19.9,15.3z"/>
		<path class="st0" d="M19,13.2v1c0,0,0.1,0,0.1,0c1.3-0.2,2.5-0.4,3.5-0.3l0-1C21.5,12.9,20.3,13.1,19,13.2L19,13.2z"/>
		<path class="st0" d="M18.3,13.3c-0.4,0.1-0.7,0.1-1.1,0.1l0,1c0.4,0,0.8-0.1,1.1-0.1V13.3L18.3,13.3z"/>
		<path class="st0" d="M28.5,10.9c-0.8-0.1-1.6-0.2-2.4-0.1l0,1c0.7-0.1,1.5,0,2.3,0.1V10.9L28.5,10.9z"/>
		<path class="st0" d="M31.6,11.3c-0.6-0.1-1.2-0.2-1.7-0.2c-0.2,0-0.4-0.1-0.6-0.1v1c0.2,0,0.3,0,0.5,0.1c0.6,0.1,1.3,0.2,1.9,0.3
			L31.6,11.3L31.6,11.3z"/>
		<path class="st0" d="M28.3,13c-0.7-0.1-1.4-0.1-2.1-0.1l0,1c0.6,0,1.3,0,2.1,0.1V13L28.3,13z"/>
		<path class="st0" d="M31.7,13.5c-0.6-0.1-1.2-0.2-1.8-0.2c-0.3,0-0.5-0.1-0.8-0.1v1c0.2,0,0.4,0.1,0.7,0.1c0.6,0.1,1.3,0.2,2,0.3
			L31.7,13.5L31.7,13.5z"/>
		<path class="st0" d="M29.8,16.4c0.7,0.1,1.3,0.2,2,0.3l0-1c-0.6-0.1-1.3-0.2-1.9-0.3c0,0-0.1,0-0.1,0V16.4L29.8,16.4z"/>
		<path class="st0" d="M29.1,15.3c-1-0.1-1.9-0.2-2.7-0.2l0,1c0.8,0,1.7,0.1,2.7,0.2V15.3L29.1,15.3z"/>
		<path class="st0" d="M23.2,30.9l1.3-3.1l1.3,3.1l3.4,0.2l-2.6,2.2l0.8,3.3l-2.9-1.8l-2.9,1.8l0.8-3.3l-2.6-2.2L23.2,30.9
			L23.2,30.9z M15.6,29.8L15.6,29.8l5.4,4l-2.1,6.5c0,0,0,0,0,0c0,0,0,0,0,0l5.5-4l5.5,4c0,0,0,0,0,0c0,0,0,0,0-0.1l-2.1-6.4l5.4-4
			v0c0,0,0,0,0-0.1c0,0,0,0-0.1,0v0h-6.7l-2.1-6.4h0c0,0,0,0,0,0s0,0,0,0h0l-2.1,6.4L15.6,29.8L15.6,29.8
			C15.6,29.7,15.5,29.7,15.6,29.8C15.5,29.7,15.5,29.8,15.6,29.8L15.6,29.8z"/>
		<path class="st0" d="M38,37.9c-0.5,0.5-1.1,0.9-1.8,1.1c0.1-0.7,0.4-1.4,0.9-1.9c0.5-0.5,1.1-0.9,1.8-1.1
			C38.8,36.6,38.5,37.3,38,37.9L38,37.9z M35.3,33.6c-0.1-0.7,0-1.5,0.4-2.1c0.5,0.5,0.8,1.2,0.9,1.9c0.1,0.7,0,1.5-0.4,2.1
			C35.7,35,35.4,34.4,35.3,33.6L35.3,33.6z M36.8,28.1c-0.1-0.7-0.1-1.5,0.2-2.1c0.5,0.5,0.9,1.2,1,1.9c0.1,0.7,0.1,1.5-0.2,2.1
			C37.3,29.5,36.9,28.8,36.8,28.1L36.8,28.1z M40.3,29.7c0.1,0.7-0.1,1.4-0.5,2.1c-0.4,0.6-0.9,1.1-1.6,1.4
			c-0.1-0.7,0.1-1.4,0.5-2.1C39.1,30.5,39.6,30,40.3,29.7L40.3,29.7z M34.9,43.4c-0.6,0.4-1.3,0.7-2,0.7c0.2-0.7,0.7-1.3,1.3-1.7
			c0.6-0.4,1.3-0.7,2-0.7C36,42.4,35.5,43,34.9,43.4L34.9,43.4z M33.2,38.7c0.1-0.7,0.3-1.4,0.8-2c0.4,0.6,0.5,1.4,0.5,2.1
			c-0.1,0.7-0.3,1.4-0.8,2C33.3,40.2,33.2,39.5,33.2,38.7L33.2,38.7z M31.3,43.6c-0.2,0.7-0.6,1.3-1.2,1.8c-0.2-0.7-0.2-1.4,0-2.1
			c0.2-0.7,0.6-1.3,1.2-1.8C31.5,42.2,31.5,42.9,31.3,43.6L31.3,43.6z M32.4,46.8c-0.4,0.6-0.9,1.1-1.6,1.4c-0.5,0.2-1,0.3-1.5,0.3
			l0,0c-0.2,0-0.4,0-0.6-0.1c0.4-0.6,0.9-1.1,1.6-1.4C31,46.8,31.7,46.7,32.4,46.8L32.4,46.8z M26.1,47.1c0.4-0.6,0.9-1.2,1.5-1.5
			c0.1,0.7-0.1,1.4-0.4,2.1c-0.3,0.6-0.9,1.2-1.5,1.5C25.7,48.5,25.8,47.7,26.1,47.1L26.1,47.1z M18,48.2c-0.7-0.3-1.2-0.8-1.6-1.4
			c0.7-0.1,1.4,0,2.1,0.3c0.7,0.3,1.2,0.8,1.6,1.4C19.4,48.6,18.7,48.5,18,48.2L18,48.2z M17.5,43.6c-0.2-0.7-0.2-1.4,0-2.1
			c0.6,0.5,1,1.1,1.2,1.8c0.2,0.7,0.2,1.4,0,2.1C18.1,45,17.7,44.3,17.5,43.6L17.5,43.6z M21.2,45.6c0.6,0.3,1.2,0.9,1.5,1.5
			c0.3,0.6,0.5,1.4,0.4,2.1c-0.6-0.3-1.2-0.9-1.5-1.5C21.2,47,21.1,46.3,21.2,45.6L21.2,45.6z M13.9,43.4c-0.6-0.4-1-1-1.3-1.7
			c0.7,0,1.4,0.3,2,0.7c0.6,0.4,1,1,1.3,1.7C15.2,44.1,14.5,43.8,13.9,43.4L13.9,43.4z M14.8,36.7c0.5,0.6,0.7,1.3,0.8,2
			c0.1,0.7-0.1,1.5-0.5,2.1c-0.5-0.6-0.7-1.3-0.8-2C14.3,38.1,14.5,37.4,14.8,36.7L14.8,36.7z M10.9,37.9c-0.5-0.5-0.8-1.2-0.9-1.9
			c0.7,0.2,1.3,0.5,1.8,1.1c0.5,0.5,0.8,1.2,0.9,1.9C12,38.8,11.4,38.4,10.9,37.9L10.9,37.9z M10.6,33.2C10,32.9,9.4,32.4,9,31.8
			c-0.4-0.6-0.5-1.4-0.5-2.1c0.7,0.3,1.2,0.8,1.6,1.4C10.5,31.8,10.7,32.5,10.6,33.2L10.6,33.2z M10.8,27.9c0.1-0.7,0.5-1.4,1-1.9
			c0.3,0.7,0.4,1.4,0.2,2.1c-0.1,0.7-0.5,1.4-1,1.9C10.7,29.3,10.7,28.6,10.8,27.9L10.8,27.9z M12.3,33.5c0.1-0.7,0.4-1.4,0.9-1.9
			c0.3,0.6,0.5,1.4,0.4,2.1c-0.1,0.7-0.4,1.4-0.9,1.9C12.3,34.9,12.2,34.2,12.3,33.5L12.3,33.5z M38,34.4c1.1-0.3,2.1-1.1,2.7-2.1
			c0.6-1,0.8-2.2,0.5-3.3L41,28.5l-0.5,0.1C40,28.8,39.4,29,39,29.4c0.1-0.6,0.1-1.1,0-1.7c-0.2-1.1-0.9-2.2-1.8-2.8l-0.4-0.3
			L36.5,25c-0.6,1-0.8,2.2-0.6,3.3c0.2,1.1,0.9,2.1,1.8,2.8c-0.2,0.4-0.3,0.8-0.3,1.2c-0.3-0.8-0.8-1.4-1.4-2l-0.4-0.3l-0.3,0.4
			c-0.7,0.9-1,2.1-0.8,3.3c0.2,1.2,0.7,2.2,1.6,3l0,0c-0.3,0.4-0.5,0.8-0.6,1.2c-0.1-0.8-0.4-1.6-1-2.2l-0.3-0.4l-0.4,0.4
			c-0.9,0.8-1.4,1.9-1.5,3c-0.1,1.2,0.3,2.3,1,3.2l0,0c-0.3,0.3-0.6,0.6-0.9,1c0.1-0.8-0.1-1.6-0.5-2.4l-0.2-0.5l-0.4,0.3
			c-1,0.6-1.7,1.5-2.1,2.7c-0.3,1.1-0.2,2.3,0.3,3.4l0,0c-0.4,0.2-0.7,0.5-1,0.8c0.2-0.8,0.2-1.6,0-2.4l-0.1-0.5l-0.5,0.2
			c-1.1,0.4-2,1.1-2.6,2.2c-0.5,1-0.7,2.1-0.4,3.2c-0.1,0.1-0.3,0.2-0.5,0.3c-0.2-0.1-0.3-0.2-0.5-0.3c0.3-1.1,0.1-2.2-0.4-3.2
			c-0.6-1-1.5-1.8-2.6-2.2l-0.5-0.2l-0.1,0.5c-0.2,0.8-0.2,1.6,0,2.4c-0.3-0.3-0.7-0.6-1-0.8l0,0c0.5-1,0.6-2.2,0.3-3.4
			c-0.3-1.1-1.1-2.1-2.1-2.7l-0.4-0.3l-0.2,0.5c-0.4,0.7-0.5,1.6-0.5,2.4c-0.2-0.4-0.5-0.7-0.9-1l0,0c0.7-0.9,1.1-2.1,1-3.2
			c-0.1-1.2-0.6-2.2-1.5-3l-0.4-0.4l-0.3,0.4c-0.5,0.6-0.8,1.4-1,2.2c-0.1-0.4-0.4-0.8-0.6-1.2l0,0c0.9-0.7,1.5-1.8,1.6-3
			c0.1-1.2-0.1-2.3-0.8-3.3l-0.3-0.4l-0.4,0.3c-0.6,0.5-1.1,1.2-1.4,2c-0.1-0.4-0.2-0.8-0.4-1.2c0.9-0.7,1.6-1.7,1.8-2.8
			c0.2-1.2,0-2.3-0.6-3.3l-0.3-0.4l-0.4,0.3c-0.9,0.7-1.6,1.7-1.8,2.8c-0.1,0.6-0.1,1.1,0,1.7c-0.5-0.4-1-0.6-1.5-0.8l-0.5-0.1
			L7.7,29c-0.3,1.1-0.1,2.3,0.5,3.3c0.6,1,1.5,1.7,2.7,2.1l0.4,0.1c0,0.4,0.1,0.7,0.3,1.1c-0.6-0.4-1.3-0.6-2.1-0.7l-0.5,0l0,0.5
			c0,1.2,0.4,2.3,1.2,3.2c0.8,0.9,1.9,1.4,3,1.5l0.5,0c0.1,0.4,0.3,0.7,0.5,1c-0.5-0.2-1-0.3-1.6-0.3c-0.2,0-0.4,0-0.6,0l-0.5,0.1
			l0.1,0.5c0.2,1.2,0.9,2.2,1.8,2.8c0.8,0.6,1.7,0.9,2.7,0.9c0.2,0,0.4,0,0.6,0L17,45c0.2,0.3,0.4,0.6,0.7,0.9
			c-0.7-0.1-1.5,0-2.2,0.2L15,46.2l0.2,0.5c0.5,1.1,1.3,1.9,2.4,2.4c0.6,0.3,1.2,0.4,1.9,0.4c0.5,0,1-0.1,1.5-0.3l0.4-0.1
			c0.6,0.5,1.3,1,2.2,1.7c-0.4,0.3-0.9,0.6-1.4,0.9l0.9,0.6c0.5-0.3,1-0.6,1.4-0.9c0.4,0.3,0.9,0.6,1.4,0.9l0.9-0.6
			c-0.5-0.3-1-0.6-1.4-0.9c0.9-0.6,1.6-1.1,2.2-1.7l0.4,0.1c0.5,0.2,1,0.3,1.5,0.3l0,0c0.6,0,1.3-0.1,1.9-0.4
			c1.1-0.5,1.9-1.3,2.4-2.4l0.2-0.5L33.3,46c-0.7-0.2-1.5-0.3-2.2-0.2c0.3-0.3,0.5-0.6,0.7-0.9l0.5,0.1c0.2,0,0.4,0,0.6,0
			c0,0,0,0,0,0c1,0,1.9-0.3,2.7-0.9c0.9-0.7,1.6-1.7,1.8-2.8l0.1-0.5l-0.5-0.1c-0.2,0-0.4,0-0.6,0c-0.6,0-1.1,0.1-1.6,0.3
			c0.2-0.3,0.4-0.6,0.5-1l0.5,0c1.2-0.1,2.2-0.6,3-1.5c0.8-0.9,1.2-2,1.2-3.2l0-0.5l-0.5,0c-0.7,0.1-1.5,0.3-2.1,0.7
			c0.1-0.3,0.2-0.7,0.3-1.1L38,34.4L38,34.4z"/>
		<path class="st0" d="M38.1,44.6c-1,1.4-2.1,2.8-3.5,4.1c-4.2,3.8-8.9,6-10.2,6.5c-1.3-0.6-6-2.7-10.2-6.5
			c-1.4-1.3-2.5-2.6-3.5-4.1c-4.7-6.9-5.4-15-5.4-21.3l0,0l19-1.1l19,1.1C43.5,29.6,42.8,37.6,38.1,44.6L38.1,44.6z M6.4,7.1
			c3.5-0.4,11.5-1.2,18-1.2c6.5,0,14.5,0.8,18,1.2l1,13.9h-19h-19L6.4,7.1L6.4,7.1z M45.4,5.5l-0.8-0.1C44.4,5.4,33.2,4,24.5,4
			c0,0,0,0,0,0c0,0,0,0,0,0c-8.7,0-20,1.4-20.1,1.4L3.5,5.5v15.5h0v2.2c0,6.5,0.6,15,5.7,22.4c1,1.5,2.2,2.9,3.6,4.3l0,0
			c0,0,0,0,0,0c2.7,2.6,6.4,5.1,11.6,8v0c0,0,0,0,0,0c0,0,0,0,0,0v0c5.2-2.9,8.8-5.4,11.6-8c0,0,0,0,0,0v0c1.4-1.4,2.6-2.8,3.6-4.3
			c5.1-7.4,5.7-15.9,5.7-22.4v-0.3l0,0V5.5L45.4,5.5z"/>
	</g>
	<g>
		<path class="st1" d="M63.2,29.8l6-0.1c6.1,0,9.9,3.5,9.9,9.9c0,6.5-3.4,10.3-10.2,11.1l-5.7-0.1l-4,0.1l-0.1-1l2.7-0.4V31.2
			L59,30.8l0.1-1.1L63.2,29.8z M64.8,31.2v18l3.8,0.3c4.2,0,7-3.8,7-9.4c0-5-2.6-9-7.8-9L64.8,31.2z"/>
		<path class="st1" d="M84.3,43.1c0,3.4,1.8,5.9,5,5.9c1.2,0,2.6-0.6,3.7-1.3l0.5,1.1c-1.4,1-3.3,1.8-5.2,2.4
			c-3.6,0-6.9-2.6-6.9-7.3c0-4.4,2.7-6.8,6.8-7.7c4,0,5.3,2.5,5.3,5.6v1.3H84.3z M90.3,41.6c0-2.3-0.4-3.9-2.8-3.9
			c-1.8,0-3,1.7-3.2,4.2L90.3,41.6z"/>
		<path class="st1" d="M98.6,50.7l-3.5,0.1l-0.1-1l2.1-0.3V31.4L95,31.4l-0.1-1l3.6-0.9l1.5-0.1v20.1l2.2,0.3l-0.1,1L98.6,50.7z"/>
		<path class="st1" d="M106.7,50.7l-3.5,0.1l-0.1-1l2.1-0.3V31.4l-2.1,0.1l-0.1-1l3.6-0.9l1.5-0.1v20.1l2.2,0.3l-0.1,1L106.7,50.7z"
			/>
		<path class="st1" d="M138.9,29.7l3.3,0.1l2.8-0.1l0.1,1.1l-2.5,0.4v18.2l2.4,0.4l-0.1,1l-3.6-0.1l-4.3,0.1l-0.1-1l2.7-0.4V35.6
			l0.4-3.5l-7.6,18.6h-1.9l-6-15.1l-1.1-3.5v17.2l2.6,0.4l-0.2,1l-3.2-0.1l-3.4,0.1l-0.1-1l2.4-0.4V31.2l-2.5-0.4l0.1-1.1l3.1,0.1
			l3.3-0.1l6.3,15.9l0.2,1.7L138.9,29.7z"/>
		<path class="st1" d="M148.6,43.1c0,3.4,1.8,5.9,5,5.9c1.2,0,2.6-0.6,3.8-1.3l0.5,1.1c-1.4,1-3.3,1.8-5.2,2.4
			c-3.6,0-6.9-2.6-6.9-7.3c0-4.4,2.7-6.8,6.8-7.7c4,0,5.3,2.5,5.3,5.6v1.3H148.6z M154.6,41.6c0-2.3-0.4-3.9-2.8-3.9
			c-1.8,0-3,1.7-3.2,4.2L154.6,41.6z"/>
		<path class="st1" d="M172.5,46.9c0,1.2,0.2,1.7,0.5,2.2h1.7l0.1,1.1l-4,0.8l-0.9-2.3l-3.9,2.6c-3.8,0-6.2-2.9-6.2-7
			c0-4.9,3-7.4,7.3-8c0.6,0,1.9,0.5,2.6,0.8v-5.7l-2.1,0.1l-0.1-1l3.6-0.9l1.5-0.1V46.9z M168.8,47.6l0.9-0.7v-7.9
			c-0.7-0.8-1.7-1.2-3-1.2c-2.4,0-3.9,2.2-3.9,5.7c0,3.3,1.3,5.4,3.1,5.4C166.7,48.8,167.7,48.4,168.8,47.6z"/>
		<path class="st1" d="M180.1,50.7l-3.4,0.1l-0.2-1l2.1-0.3V38.5l-2.1,0.2l-0.1-1.1l3.6-0.9l1.5-0.1v12.9l2.2,0.3l-0.1,1L180.1,50.7
			z M178.6,30.1l2.2-0.1l0.8,0.1l0.1,1.7l-0.3,1.4l-2.1,0.2l-0.8-0.2l-0.2-1.7L178.6,30.1z"/>
		<path class="st1" d="M192.8,38.3c-0.5-0.4-0.9-0.5-1.7-0.5c-2,0-3.6,2.3-3.6,5.5c0,3.2,1.7,5.6,4.7,5.6c1.1,0,2.3-0.6,3.4-1.3
			l0.5,1.1c-1.4,1-2.9,1.7-4.9,2.4c-3.8,0-6.7-2.5-6.7-7.1c0-4.7,3.5-7,7.1-7.9c1.4,0,3.2,0.7,4.1,1.5v3h-2.2L192.8,38.3z"/>
		<path class="st1" d="M203.9,36.2c3.8,0,4.7,1,4.7,4.8v5.9c0,1.3,0.2,1.8,0.5,2.2h1.5l0.1,1l-3.9,0.8l-0.9-2.3l-3.6,2.6
			c-2.6,0-4.4-1.4-4.4-3.8c0-1.1,0.4-1.9,1-2.8l6.8-2.2v-1.5c0-1.8-0.1-2.9-1.8-2.9c-0.8,0-1.8,0.3-2.5,0.5l-0.5,2.4h-2.6v-2.3
			L203.9,36.2z M205.8,43.6l-4.4,1.8c-0.4,0.5-0.6,1.1-0.6,1.7c0,1.5,0.9,2.1,1.7,2.1c0.8,0,1.6-0.5,1.9-0.8l1.3-0.9V43.6z"/>
		<path class="st1" d="M215.5,50.7l-3.4,0.1l-0.2-1l2.1-0.3V31.4l-2.1,0.1l-0.1-1l3.6-0.9l1.5-0.1v20.1l2.2,0.3l-0.1,1L215.5,50.7z"
			/>
		<path class="st1" d="M231.1,47.8c0.9,1.1,2.6,1.9,4.2,1.9c2.6,0,4.1-1.6,4.1-3.8c0-2-1.3-3.2-3.1-4l-3.6-1.6
			c-2.2-0.9-3.9-2.3-3.9-5c0-3.3,3-5.2,7.2-6.1c1.9,0,4,0.6,5.5,1.7v4h-1.5l-0.9-2.7c-0.8-0.8-1.7-1.5-3.5-1.5
			c-2.4,0-3.8,1.3-3.8,3.3c0,1.6,1.2,2.7,2.8,3.4L238,39c2.4,1,4.4,2.5,4.4,5.6c0,2.8-1.9,5.5-7.6,6.7c-2.8,0-4.6-0.8-6.2-2l-0.7-4
			h2.1L231.1,47.8z"/>
		<path class="st1" d="M252.8,38.3c-0.5-0.4-0.9-0.5-1.7-0.5c-2,0-3.6,2.3-3.6,5.5c0,3.2,1.7,5.6,4.7,5.6c1.1,0,2.3-0.6,3.4-1.3
			l0.5,1.1c-1.4,1-2.9,1.7-4.9,2.4c-3.8,0-6.7-2.5-6.7-7.1c0-4.7,3.4-7,7.1-7.9c1.4,0,3.2,0.7,4.1,1.5v3h-2.2L252.8,38.3z"/>
		<path class="st1" d="M262.3,49.4l1.7,0.3l-0.2,1l-2.8-0.1l-3.5,0.1l-0.1-1l2.1-0.3V31.3l-2.1,0.1l-0.1-1l3.6-0.9l1.5-0.1v9.7
			l4.4-2.8c3.8,0,4.5,1.4,4.5,5.2v8l2.2,0.3l-0.1,1l-3.4-0.1l-2.8,0.1l-0.1-1l1.5-0.3v-8.6c0-1.6-0.7-2.2-1.9-2.2
			c-0.9,0-2.1,0.7-3.2,1.3l-0.9,0.6V49.4z"/>
		<path class="st1" d="M288.1,43.4c0,4.5-2.7,7-7.4,7.8c-4,0-6.7-3.1-6.7-7.2c0-4.5,2.7-7,7.4-7.8C285.4,36.2,288.1,39.3,288.1,43.4
			z M281.5,49.7c2.4,0,3.6-2.5,3.6-5.7c0-3.8-1.8-6.4-4.4-6.4c-2.4,0-3.6,2.5-3.6,5.7C277,46.8,278.8,49.7,281.5,49.7z"/>
		<path class="st1" d="M304.1,43.4c0,4.5-2.7,7-7.4,7.8c-4,0-6.7-3.1-6.7-7.2c0-4.5,2.7-7,7.4-7.8C301.4,36.2,304.1,39.3,304.1,43.4
			z M297.5,49.7c2.4,0,3.6-2.5,3.6-5.7c0-3.8-1.8-6.4-4.4-6.4c-2.4,0-3.6,2.5-3.6,5.7C293.1,46.8,294.8,49.7,297.5,49.7z"/>
		<path class="st1" d="M308.8,50.7l-3.5,0.1l-0.1-1l2.1-0.3V31.4l-2.1,0.1l-0.1-1l3.6-0.9l1.5-0.1v20.1l2.2,0.3l-0.1,1L308.8,50.7z"
			/>
	</g>
	<g>
		<path class="st0" d="M75.4,21.1l-1.9,0.1l-0.1-0.7l1-0.2v-5.7c0-1-0.5-1.5-1.3-1.5c-0.6,0-1.4,0.4-2.1,0.9l-0.6,0.4v5.9l1.1,0.2
			l-0.1,0.7l-1.9-0.1l-2.1,0.1l-0.1-0.7l1.2-0.2V8l-0.7,0.1l-4.1-0.1v12.1l2.3,0.3L66,21.1l-3.2-0.1l-3.4,0.1l-0.1-0.7l2.4-0.3V8.1
			l-3,0.1l-0.9,2.5H57V7.1l5.7,0l4.9,0l2.1-0.2h0.7v6.5l2.9-1.9c2.6,0,3,1,3,3.5v5.3l1.5,0.2l-0.1,0.7L75.4,21.1z"/>
		<path class="st0" d="M80.6,16c0,2.3,1.2,3.9,3.3,3.9c0.8,0,1.8-0.4,2.5-0.8l0.3,0.8c-1,0.7-2.2,1.2-3.5,1.6
			c-2.4,0-4.6-1.7-4.6-4.9c0-3,1.8-4.5,4.5-5.1c2.6,0,3.5,1.7,3.5,3.8V16H80.6z M84.7,15c0-1.5-0.3-2.6-1.8-2.6
			c-1.2,0-2,1.1-2.2,2.8L84.7,15z"/>
		<path class="st0" d="M100.6,7.8l0.1-0.7l2.6,0.1l2.3-0.1l0.1,0.7L104,8.1v8.2c0,2.6-1.1,4.3-5,5.3c-3.9,0-5.3-2.1-5.3-5.3V8.1
			l-1.8-0.3l0.1-0.7l2.8,0.1l2.7-0.1l0.1,0.7l-1.7,0.3v8.4c0,2.5,1.1,3.9,3.3,3.9c2.1,0,3.2-1.4,3.2-4V8.1L100.6,7.8z"/>
		<path class="st0" d="M108.4,21.1l-2.3,0.1l-0.1-0.7l1.4-0.2v-7.3l-1.4,0.1l-0.1-0.7l2.4-0.6l0.9-0.1l0.1,1.7l3-1.9
			c2.6,0,3,0.9,3,3.3v5.6l1.5,0.2l-0.1,0.7l-2.3-0.1l-1.9,0.1l-0.1-0.7l1-0.2v-5.7c0-1-0.5-1.5-1.3-1.5c-0.7,0-1.4,0.4-2.1,0.9
			l-0.6,0.4v5.9l1.1,0.2l-0.1,0.7L108.4,21.1z"/>
		<path class="st0" d="M119.8,21.1l-2.3,0.1l-0.1-0.7l1.4-0.2v-7.3l-1.4,0.1l-0.1-0.7l2.4-0.6l1-0.1v8.6l1.5,0.2l-0.1,0.7
			L119.8,21.1z M118.8,7.3l1.4-0.1l0.6,0.1l0.1,1.1l-0.2,1l-1.4,0.1l-0.5-0.1l-0.1-1.1L118.8,7.3z"/>
		<path class="st0" d="M127.8,19.8l2.4-7.2l-0.9-0.2l0.1-0.7l1.8,0.1l1.7-0.1l0.1,0.7l-1.3,0.2l-3.3,8.2l-1.5,0.6l-3.5-8.8l-1.2-0.2
			l0.1-0.7l2.3,0.1l2.1-0.1l0.1,0.7l-1.3,0.2l2.2,5.9L127.8,19.8z"/>
		<path class="st0" d="M134.9,16c0,2.3,1.2,3.9,3.3,3.9c0.8,0,1.8-0.4,2.5-0.8l0.3,0.8c-1,0.7-2.2,1.2-3.5,1.6
			c-2.4,0-4.6-1.7-4.6-4.9c0-3,1.8-4.5,4.5-5.1c2.6,0,3.5,1.7,3.5,3.8V16H134.9z M138.9,15c0-1.5-0.3-2.6-1.8-2.6
			c-1.2,0-2,1.1-2.2,2.8L138.9,15z"/>
		<path class="st0" d="M145.5,14.3l2.3-2.8h1.6v2h-1.5c-0.5,0.1-1.4,0.8-1.9,1.4l-0.4,0.5v4.8l2.1,0.2l-0.1,0.8l-2.9-0.1l-2.2,0.1
			l-0.1-0.7l1.4-0.2v-7.3l-1.4,0.1l-0.1-0.7l2.4-0.6l0.8-0.1L145.5,14.3z"/>
		<path class="st0" d="M155.7,12.8c-0.2-0.1-0.8-0.4-1.5-0.4c-0.8,0-1.5,0.4-1.5,1.2c0,0.6,0.5,1,1.4,1.5l1.5,0.8
			c1.3,0.7,1.9,1.4,1.9,2.6c0,1.8-1.5,2.5-3.8,3c-1.2,0-2.5-0.6-3-0.9l-0.4-2.3h1.3l0.7,1.7c0.4,0.3,1,0.5,1.6,0.5
			c1.1,0,1.6-0.7,1.6-1.5c0-0.8-0.4-1.1-1.5-1.7l-1.6-0.8c-0.9-0.4-1.7-1.2-1.7-2.3c0-1.4,1.3-2.2,3.6-2.7c1.1,0,2.2,0.5,2.8,0.9v2
			h-1.1L155.7,12.8z"/>
		<path class="st0" d="M161.2,21.1l-2.3,0.1l-0.1-0.7l1.4-0.2v-7.3l-1.4,0.1l-0.1-0.7l2.4-0.6l1-0.1v8.6l1.5,0.2l-0.1,0.7
			L161.2,21.1z M160.2,7.3l1.4-0.1l0.6,0.1l0.1,1.1l-0.2,1l-1.4,0.1l-0.5-0.1L160,8.3L160.2,7.3z"/>
		<path class="st0" d="M171.1,25.8v-2h1.7l2-3L174,21l-3.4-8.4h-3v6.1c0,0.6,0.2,1.2,1.1,1.2c0.6,0,1.2-0.3,1.8-0.6l0.3,0.7
			l-2.5,1.4c-2.2,0-2.5-0.8-2.5-2.6v-6h-1.9v-0.3l0.7-0.7h1.3v-1.3l1.3-1.3h0.5v2.5h6.3l0.1,0.7l-1.3,0.2l2.2,5.9l0.2,1.4l2.5-7.2
			l-0.9-0.2l0.1-0.7l1.8,0.1l1.7-0.1l0.1,0.7l-1.3,0.2l-3.2,8.2l-2.2,5H171.1z"/>
		<path class="st0" d="M193.4,16.2c0,3-1.8,4.7-4.9,5.2c-2.7,0-4.5-2.1-4.5-4.8c0-3,1.8-4.7,4.9-5.2
			C191.6,11.4,193.4,13.5,193.4,16.2z M189,20.4c1.6,0,2.4-1.6,2.4-3.8c0-2.5-1.2-4.2-3-4.2c-1.6,0-2.4,1.6-2.4,3.8
			C186.1,18.5,187.2,20.4,189,20.4z"/>
		<path class="st0" d="M197.9,11.9h2.5v0.9h-2.5v7.4l2.3,0.1l-0.1,0.8l-3.1-0.1l-2.3,0.1l-0.1-0.7l1.4-0.2v-7.4h-1.8v-0.3l0.6-0.7
			h1.2v-0.2c0-1.2,0.4-2,1.1-2.8l1.7-1.9h2.5v1.6h-2.6l-0.4,0.5c-0.3,0.4-0.4,1-0.4,2.3V11.9z"/>
		<path class="st0" d="M215.7,21.1l-3.2-0.1l-3.4,0.1l-0.1-0.7l2.4-0.3V8.1l-3,0l-0.9,2.5h-0.8V7.1l5.7,0.1l5.8-0.1v3.5h-0.8
			l-0.9-2.5l-3,0v12.1l2.3,0.3L215.7,21.1z"/>
		<path class="st0" d="M219.3,16c0,2.3,1.2,3.9,3.3,3.9c0.8,0,1.8-0.4,2.5-0.8l0.3,0.8c-1,0.7-2.2,1.2-3.5,1.6
			c-2.4,0-4.6-1.7-4.6-4.9c0-3,1.8-4.5,4.5-5.1c2.6,0,3.5,1.7,3.5,3.8V16H219.3z M223.3,15c0-1.5-0.3-2.6-1.8-2.6
			c-1.2,0-2,1.1-2.2,2.8L223.3,15z"/>
		<path class="st0" d="M230,20.4l-0.1,0.7l-1.6-0.1l-2.1,0.1l-0.1-0.7l1.4-0.2l3-3.6l-2.9-4l-1.2-0.2l0.1-0.7l2.3,0.1l1.9-0.1
			l0.1,0.7l-0.8,0.2l1.5,2.2l0.2,0.5l1.9-2.7l-1-0.2l0.1-0.7l1.6,0.1l2.1-0.1l0.1,0.7l-1.4,0.2l-2.6,3.2l3.1,4.4l1.2,0.2l-0.1,0.7
			l-2.3-0.1l-1.9,0.1l-0.1-0.7l0.8-0.2l-1.8-2.6l-0.2-0.5l-2.1,3L230,20.4z"/>
		<path class="st0" d="M241.3,11.4c2.5,0,3.2,0.6,3.2,3.2v3.9c0,0.9,0.1,1.2,0.3,1.5h1l0.1,0.7l-2.6,0.5l-0.6-1.5l-2.4,1.7
			c-1.7,0-2.9-1-2.9-2.6c0-0.7,0.3-1.2,0.7-1.8l4.5-1.5v-1c0-1.2-0.1-1.9-1.2-1.9c-0.5,0-1.2,0.2-1.6,0.4l-0.3,1.6h-1.7V13
			L241.3,11.4z M242.6,16.3l-2.9,1.2c-0.3,0.3-0.4,0.7-0.4,1.1c0,1,0.6,1.4,1.2,1.4c0.6,0,1-0.3,1.3-0.5l0.8-0.6V16.3z"/>
		<path class="st0" d="M252.1,12.8c-0.2-0.1-0.8-0.4-1.5-0.4c-0.8,0-1.5,0.4-1.5,1.2c0,0.6,0.5,1,1.4,1.5l1.5,0.8
			c1.3,0.7,1.9,1.4,1.9,2.6c0,1.8-1.5,2.5-3.8,3c-1.2,0-2.5-0.6-3-0.9l-0.4-2.3h1.3l0.7,1.7c0.4,0.3,1,0.5,1.6,0.5
			c1.1,0,1.6-0.7,1.6-1.5c0-0.8-0.4-1.1-1.5-1.7l-1.6-0.8c-0.9-0.4-1.7-1.2-1.7-2.3c0-1.4,1.3-2.2,3.6-2.7c1.1,0,2.2,0.5,2.8,0.9v2
			h-1.1L252.1,12.8z"/>
		<path class="st0" d="M263.9,11.4c2.5,0,3.2,0.6,3.2,3.2v3.9c0,0.9,0.1,1.2,0.3,1.5h1l0.1,0.7l-2.6,0.5l-0.6-1.5l-2.4,1.7
			c-1.7,0-2.9-1-2.9-2.6c0-0.7,0.3-1.2,0.7-1.8l4.5-1.5v-1c0-1.2-0.1-1.9-1.2-1.9c-0.5,0-1.2,0.2-1.6,0.4l-0.3,1.6h-1.7V13
			L263.9,11.4z M265.2,16.3l-2.9,1.2c-0.3,0.3-0.4,0.7-0.4,1.1c0,1,0.6,1.4,1.2,1.4c0.6,0,1-0.3,1.3-0.5l0.8-0.6V16.3z"/>
		<path class="st0" d="M268.4,12.9v-0.3l0.7-0.7h1.3v-1.3l1.3-1.3h0.5V12h3v0.9h-3v5.9c0,0.6,0.2,1.2,1.1,1.2c0.6,0,1-0.2,1.6-0.5
			l0.3,0.7l-2.3,1.3c-2.2,0-2.5-0.8-2.5-2.6v-6H268.4z"/>
		<path class="st0" d="M283.7,16.4l-1.3,3.7l1.7,0.3l-0.1,0.7l-2.4-0.1l-2.1,0.1l-0.1-0.7l1.6-0.2l5-13l1.2-0.3l5.2,13.3l1.6,0.2
			l-0.1,0.7l-2.8-0.1l-2.6,0.1l-0.1-0.7l1.7-0.3l-1.4-3.7H283.7z M286.4,10.2l-0.1-1.1l-2.2,6.4h4.3L286.4,10.2z"/>
		<path class="st0" d="M302.4,18.5c0,0.9,0.1,1.2,0.2,1.5h1l0.1,0.7l-2.6,0.5l-0.6-1.6l-2.9,1.8c-2.6,0-3.1-0.9-3.1-3.3v-5.2
			l-1.4,0.1l-0.1-0.8l2.4-0.5l1-0.1v6.7c0,1,0.4,1.5,1.4,1.5c0.6,0,1.4-0.5,2.2-1l0.4-0.3v-5.6l-1.2,0.1l-0.1-0.8l2.2-0.5l1-0.1
			V18.5z"/>
		<path class="st0" d="M310,12.8c-0.2-0.1-0.8-0.4-1.5-0.4c-0.8,0-1.5,0.4-1.5,1.2c0,0.6,0.5,1,1.4,1.5l1.5,0.8
			c1.3,0.7,1.9,1.4,1.9,2.6c0,1.8-1.5,2.5-3.8,3c-1.2,0-2.5-0.6-3-0.9l-0.4-2.3h1.3l0.7,1.7c0.4,0.3,1,0.5,1.6,0.5
			c1.1,0,1.6-0.7,1.6-1.5c0-0.8-0.4-1.1-1.5-1.7l-1.6-0.8c-0.9-0.4-1.7-1.2-1.7-2.3c0-1.4,1.3-2.2,3.6-2.7c1.1,0,2.2,0.5,2.8,0.9v2
			h-1.1L310,12.8z"/>
		<path class="st0" d="M312.4,12.9v-0.3l0.7-0.7h1.3v-1.3l1.3-1.3h0.5V12h3v0.9h-3v5.9c0,0.6,0.2,1.2,1.1,1.2c0.6,0,1-0.2,1.6-0.5
			l0.3,0.7l-2.3,1.3c-2.2,0-2.5-0.8-2.5-2.6v-6H312.4z"/>
		<path class="st0" d="M322.8,21.1l-2.3,0.1l-0.1-0.7l1.4-0.2v-7.3l-1.4,0.1l-0.1-0.7l2.4-0.6l1-0.1v8.6l1.5,0.2l-0.1,0.7
			L322.8,21.1z M321.8,7.3l1.4-0.1l0.6,0.1l0.1,1.1l-0.2,1l-1.4,0.1l-0.5-0.1l-0.1-1.1L321.8,7.3z"/>
		<path class="st0" d="M328.5,21.1l-2.3,0.1l-0.1-0.7l1.4-0.2v-7.3l-1.4,0.1l-0.1-0.7l2.4-0.6l0.9-0.1l0.1,1.7l3-1.9
			c2.6,0,3,0.9,3,3.3v5.6l1.5,0.2l-0.1,0.7l-2.3-0.1l-1.9,0.1l-0.1-0.7l1-0.2v-5.7c0-1-0.5-1.5-1.3-1.5c-0.7,0-1.4,0.4-2.1,0.9
			l-0.6,0.4v5.9l1.1,0.2l-0.1,0.7L328.5,21.1z"/>
	</g>
</g>
</svg>
